<svg width="237" height="59" viewBox="0 0 237 59" fill="none" xmlns="http://www.w3.org/2000/svg">
<path d="M70.5712 13.7642C73.1405 13.7642 74.9441 12.0468 74.9441 9.28409C74.9441 6.91956 73.1405 5.20216 70.8677 5.20216C68.5206 5.20216 66.6429 6.91956 66.6429 9.43341C66.6676 11.7979 68.2487 13.7642 70.5712 13.7642ZM69.0641 49.033C69.0641 52.2437 68.99 53.4385 66.4205 54.1355C65.5805 54.3843 64.9876 54.7577 64.9876 55.7781C64.9876 57.3462 66.3464 57.4955 67.5571 57.4955H76.0806C77.4394 57.4955 78.5758 57.3462 78.5758 55.7781C78.5758 54.683 77.8099 54.3594 76.624 53.8865C74.8206 53.1896 74.7465 52.3184 74.7465 47.8383V29.619C74.7465 19.7876 73.6099 19.7876 72.4735 19.7876C71.5593 19.7876 69.8299 20.7333 69.0147 21.1316C64.5675 23.2473 64.2711 23.7948 64.2711 24.7406C64.2711 25.6864 65.1852 25.985 66.2969 26.234C69.0888 26.7815 69.0888 29.0715 69.0888 32.3569V49.033H69.0641Z" fill="#3D5C66"/>
<path d="M185.479 42.9851C185.479 49.5062 181.55 54.3099 174.089 54.3099C169.641 54.3099 166.702 51.0992 166.702 47.0919C166.702 38.928 175.744 37.4595 181.772 37.4595H185.453V42.9851H185.479ZM193.631 54.1357C191.754 53.5881 191.135 52.6423 191.135 47.8386V36.016V35.1697C191.135 25.2636 184.886 19.7629 174.632 19.7629C171.841 19.7629 168.604 20.3851 165.738 21.8039C164.601 22.4261 162.724 23.6955 162.724 25.1889C162.724 26.5329 163.713 27.1552 164.823 27.1552C167.69 27.1552 167.986 23.5462 174.929 23.5462C180.29 23.5462 185.034 27.1552 185.479 33.1287V33.8754H180.661C165.738 33.8754 160.698 41.6161 160.698 47.4403C160.698 54.982 166.949 58.6656 173.52 58.6656C178.956 58.6656 183.255 56.0024 186.12 51.2733V53.2396C186.12 56.0771 186.12 57.4709 188.913 57.4709H192.223C193.433 57.4709 195.237 57.5456 195.237 55.7534C195.212 54.6832 194.447 54.3846 193.631 54.1357Z" fill="#3D5C66"/>
<path d="M139.427 55.1421C131.051 55.1421 126.925 47.9241 126.925 39.9095C126.925 31.8203 130.853 23.9552 139.599 23.9552C147.975 23.9552 152.422 31.0985 152.422 39.1877C152.397 49.4671 145.826 55.1421 139.427 55.1421ZM139.723 20.0973C129.544 20.0973 120.872 28.9829 120.872 39.5859C120.872 50.2636 129.099 59 139.328 59C150.025 59 158.4 50.5126 158.4 39.2873C158.426 28.5847 149.901 20.0973 139.723 20.0973Z" fill="#3D5C66"/>
<path d="M85.6415 47.8628C85.6415 52.6665 85.1967 53.2887 83.6897 53.911C82.2566 54.4585 81.6637 54.7822 81.6637 55.7279C81.6637 57.5448 83.2449 57.5448 84.5296 57.5448H93.3496C94.4119 57.5448 95.3014 56.9226 95.3014 55.7279C95.3014 54.7075 94.5355 54.3839 93.0285 53.8363C91.299 53.2141 91.299 52.0194 91.299 47.8628V34.8952C91.299 31.8338 91.4473 29.6435 93.7203 27.4283C95.8202 25.462 98.8344 24.1179 102.021 24.1179C107.679 24.1179 110.767 27.5029 110.767 33.4765V47.8628C110.767 51.87 110.545 53.1145 109.26 53.7616L108.494 54.1599C107.803 54.5581 107.284 54.8569 107.284 55.7279C107.284 57.5448 108.791 57.5448 110.076 57.5448H118.278C119.266 57.5448 120.23 56.9226 120.23 55.7279C120.23 54.7075 119.563 54.3839 117.734 53.6869C116.672 53.2887 116.376 52.1936 116.376 47.8628V34.9699C116.376 30.888 116.005 27.2043 113.287 24.0434C110.792 21.2059 107.111 19.812 103.553 19.812C97.7473 19.812 93.8932 22.0024 90.3602 26.6568C89.8414 22.1765 89.0755 19.812 87.1979 19.812C85.9873 19.812 84.2579 21.4547 83.3437 22.1765C82.5779 22.7988 81.466 23.5953 81.466 24.765C81.466 25.6362 82.5284 25.935 84.0355 26.4825C85.3943 26.9554 85.6167 28.2994 85.6167 31.9831V47.8628H85.6415Z" fill="#3D5C66"/>
<path d="M59.7743 53.7618L58.2426 53.3139C57.3037 53.04 56.6614 52.169 56.6366 51.1733L55.5743 6.42156C55.5495 5.37619 56.2167 4.43037 57.205 4.15658L58.8355 3.70857C59.7496 3.48457 60.8614 3.16101 60.8614 1.99118C60.8614 0.174229 60.0461 0.0248908 58.7615 0.0248908H49.0272C47.7426 0.0248908 47.2237 0.82136 46.2354 3.33523C41.7143 15.133 36.4272 27.304 30.7695 39.4752C25.5072 27.6525 20.9859 15.8797 16.3906 4.15658C14.8588 0.248897 14.5624 0 12.6106 0H3.27176C2.1353 0 1.22118 0.472905 1.22118 1.7174C1.22118 2.81255 2.01177 3.06144 2.95059 3.26056L4.33412 3.53435C5.39648 3.73347 6.16237 4.70416 6.13766 5.8491L5.02589 51.3725C5.00119 52.2933 4.45766 53.1147 3.61766 53.4383L2.62941 53.8365C1.69059 54.2098 0.850586 54.5335 0.850586 55.8028C0.850586 57.5202 2.20942 57.5202 3.56824 57.5202H12.6106C13.5989 57.5202 14.6365 57.122 14.6365 55.9522C14.6365 54.7326 13.7718 54.2845 12.2895 53.7867L11.7706 53.6125L10.8812 53.3139C10.0412 53.04 9.47297 52.2186 9.49767 51.2978L10.5847 6.77002C15.7235 20.9821 21.3812 34.4722 27.9531 48.6097C28.7189 50.3021 30.7695 50.6258 31.7331 48.6097C37.4401 36.3391 43.9872 21.3802 49.126 8.01451L50.1885 51.5466C50.2131 52.4178 49.6943 53.2143 48.9283 53.5378L47.9648 53.9112C46.9025 54.3343 46.4084 54.6828 46.4084 55.7032C46.4084 57.346 47.8414 57.5202 49.0519 57.5202H59.2308C60.5156 57.5202 61.9485 57.4455 61.9485 55.7032C61.899 54.5086 61.1579 54.1849 59.7743 53.7618Z" fill="#3D5C66"/>
<path d="M201.537 47.8628C201.537 52.6665 201.092 53.2887 199.586 53.911C198.152 54.4585 197.559 54.7822 197.559 55.7279C197.559 57.5448 199.141 57.5448 200.425 57.5448H209.245C210.307 57.5448 211.197 56.9226 211.197 55.7279C211.197 54.7075 210.431 54.3839 208.924 53.8363C207.195 53.2141 207.195 52.0194 207.195 47.8628V34.8952C207.195 31.8338 207.343 29.6435 209.616 27.4283C211.715 25.462 214.73 24.1179 217.916 24.1179C223.574 24.1179 226.663 27.5029 226.663 33.4765V47.8628C226.663 51.87 226.441 53.1145 225.155 53.7616L224.39 54.1599C223.698 54.5581 223.179 54.8569 223.179 55.7279C223.179 57.5448 224.686 57.5448 225.971 57.5448H234.198C235.186 57.5448 236.15 56.9226 236.15 55.7279C236.15 54.7075 235.457 54.3839 233.654 53.6869C232.592 53.2887 232.296 52.1936 232.296 47.8628V34.9699C232.296 30.888 231.925 27.2043 229.208 24.0434C226.712 21.2059 223.031 19.812 219.473 19.812C213.667 19.812 209.814 22.0024 206.28 26.6568C205.761 22.1765 204.996 19.812 203.118 19.812C201.908 19.812 200.177 21.4547 199.264 22.1765C198.498 22.7988 197.386 23.5953 197.386 24.765C197.386 25.6362 198.448 25.935 199.955 26.4825C201.315 26.9554 201.537 28.2994 201.537 31.9831V47.8628Z" fill="#3D5C66"/>
</svg>
